<svg width="28" height="22" viewBox="0 0 28 22" fill="none" xmlns="http://www.w3.org/2000/svg">
<path d="M9.53125 21.7656C8.51953 21.7656 7.5944 21.6973 6.75586 21.5605C5.92643 21.4329 5.12435 21.2051 4.34961 20.877C3.58398 20.5397 2.93685 20.1068 2.4082 19.5781C1.87956 19.0495 1.45573 18.3613 1.13672 17.5137C0.826823 16.666 0.671875 15.6862 0.671875 14.5742C0.671875 14.082 0.817708 13.8359 1.10938 13.8359H7.34375C7.6263 13.8359 7.83594 13.9043 7.97266 14.041C8.10938 14.1777 8.19141 14.3464 8.21875 14.5469C8.24609 14.7474 8.26888 14.9479 8.28711 15.1484C8.31445 15.349 8.38281 15.5176 8.49219 15.6543C8.61068 15.791 8.79297 15.8594 9.03906 15.8594C9.26693 15.8594 9.44922 15.8001 9.58594 15.6816C9.73177 15.554 9.83203 15.3672 9.88672 15.1211C9.95052 14.875 9.98698 14.6608 9.99609 14.4785C10.0143 14.2962 10.0234 14.0638 10.0234 13.7812V13.6719C10.0143 13.0156 9.98698 11.7487 9.94141 9.87109C9.90495 7.99349 9.88672 6.52604 9.88672 5.46875V0.820312C9.88672 0.55599 10.0781 0.401042 10.4609 0.355469C10.7526 0.355469 11.1901 0.360026 11.7734 0.369141C12.3568 0.378255 12.7943 0.382812 13.0859 0.382812C13.5234 0.382812 14.1706 0.378255 15.0273 0.369141C15.8841 0.360026 16.5312 0.355469 16.9688 0.355469H18.2539C18.4635 0.355469 18.6094 0.483073 18.6914 0.738281C18.6732 0.902344 18.6641 1.12565 18.6641 1.4082C18.6732 1.69076 18.6732 1.91406 18.6641 2.07812V2.76172C18.5729 5.5599 18.5273 8.05729 18.5273 10.2539V14.5469C18.5273 15.349 18.418 16.0918 18.1992 16.7754C17.9805 17.459 17.6888 18.0423 17.3242 18.5254C16.9596 19.0085 16.5221 19.446 16.0117 19.8379C15.5104 20.2207 14.9909 20.5306 14.4531 20.7676C13.9154 21.0046 13.3457 21.2005 12.7441 21.3555C12.1517 21.5104 11.5911 21.6152 11.0625 21.6699C10.543 21.7337 10.0326 21.7656 9.53125 21.7656ZM20.2773 20.8086V20.3984C20.2773 20.2617 20.2819 20.0475 20.291 19.7559C20.3001 19.4551 20.3047 19.2135 20.3047 19.0312V18.3203C20.3047 16.0964 20.4505 14.9844 20.7422 14.9844H26.3477C27.2227 14.9844 27.6602 15.112 27.6602 15.3672C27.6966 17.1172 27.7148 18.457 27.7148 19.3867V19.8516C27.7148 19.9154 27.7194 20.0156 27.7285 20.1523C27.7376 20.2799 27.7422 20.3802 27.7422 20.4531C27.7422 20.9635 27.6419 21.2188 27.4414 21.2188H20.7148L20.2773 20.8086Z" fill="white"/>
</svg>
